<?xml version="1.0" encoding="UTF-8" standalone="no"?>
<!DOCTYPE svg PUBLIC "-//W3C//DTD SVG 1.1//EN" "http://www.w3.org/Graphics/SVG/1.1/DTD/svg11.dtd">
<svg width="100%" height="100%" viewBox="0 0 800 800" version="1.1" xmlns="http://www.w3.org/2000/svg" xmlns:xlink="http://www.w3.org/1999/xlink" xml:space="preserve" xmlns:serif="http://www.serif.com/" style="fill-rule:evenodd;clip-rule:evenodd;stroke-linecap:round;stroke-miterlimit:1;">
    <g transform="matrix(1,0,0,1,-1159,-809)">
        <g transform="matrix(2.02015,0,0,2.02017,872.216,252.584)">
            <rect x="142.327" y="275.741" width="396.011" height="396.011" style="fill:none;"/>
            <g transform="matrix(0.495014,0,0,0.495007,25.6434,-125.031)">
                <path d="M707.474,963.389L910.969,963.389L910.969,1014.39L360.468,1014.39L360.468,963.389L563.963,963.389L582.009,912.389L689.428,912.389L707.474,963.389Z" style="fill:url(#_Linear1);"/>
            </g>
            <g transform="matrix(0.495014,0,0,0.495007,25.6434,-125.031)">
                <path d="M454.299,1543.39L408.219,1033.39L863.219,1033.39L817.138,1543.39L454.299,1543.39Z" style="fill:url(#_Linear2);"/>
            </g>
            <g transform="matrix(0.495014,0,0,0.495007,25.3959,-121.071)">
                <path d="M635.719,1099.39L635.719,1460.39" style="fill:none;stroke:url(#_Linear3);stroke-width:22.22px;"/>
            </g>
            <g transform="matrix(0.495014,0,0,0.495007,78.6099,-121.071)">
                <path d="M643.719,1099.39L625.719,1460.39" style="fill:none;stroke:url(#_Linear4);stroke-width:22.22px;"/>
            </g>
            <g transform="matrix(0.495014,0,0,0.495007,-27.8181,-121.071)">
                <path d="M627.719,1099.39L645.719,1460.39" style="fill:none;stroke:url(#_Linear5);stroke-width:22.22px;"/>
            </g>
        </g>
    </g>
    <defs>
        <linearGradient id="_Linear1" x1="0" y1="0" x2="1" y2="0" gradientUnits="userSpaceOnUse" gradientTransform="matrix(373.25,161.737,-1745.81,4028.91,537.719,852.652)"><stop offset="0" style="stop-color:rgb(192,191,191);stop-opacity:1"/><stop offset="1" style="stop-color:rgb(116,106,101);stop-opacity:1"/></linearGradient>
        <linearGradient id="_Linear2" x1="0" y1="0" x2="1" y2="0" gradientUnits="userSpaceOnUse" gradientTransform="matrix(455,0,0,776.087,408.219,1288.39)"><stop offset="0" style="stop-color:rgb(192,191,191);stop-opacity:1"/><stop offset="1" style="stop-color:rgb(116,106,101);stop-opacity:1"/></linearGradient>
        <linearGradient id="_Linear3" x1="0" y1="0" x2="1" y2="0" gradientUnits="userSpaceOnUse" gradientTransform="matrix(-495,0.499946,-7.52003,-7445.62,883.719,1279.89)"><stop offset="0" style="stop-color:rgb(180,167,167);stop-opacity:1"/><stop offset="1" style="stop-color:rgb(235,223,204);stop-opacity:1"/></linearGradient>
        <linearGradient id="_Linear4" x1="0" y1="0" x2="1" y2="0" gradientUnits="userSpaceOnUse" gradientTransform="matrix(-495,0.499946,-7.52003,-7445.62,776.219,1279.89)"><stop offset="0" style="stop-color:rgb(180,167,167);stop-opacity:1"/><stop offset="1" style="stop-color:rgb(235,223,204);stop-opacity:1"/></linearGradient>
        <linearGradient id="_Linear5" x1="0" y1="0" x2="1" y2="0" gradientUnits="userSpaceOnUse" gradientTransform="matrix(-495,0.499946,-7.52003,-7445.62,991.219,1279.89)"><stop offset="0" style="stop-color:rgb(180,167,167);stop-opacity:1"/><stop offset="1" style="stop-color:rgb(235,223,204);stop-opacity:1"/></linearGradient>
    </defs>
</svg>
