<?xml version="1.0" encoding="UTF-8" standalone="no"?>
<!DOCTYPE svg PUBLIC "-//W3C//DTD SVG 1.1//EN" "http://www.w3.org/Graphics/SVG/1.1/DTD/svg11.dtd">
<svg width="100%" height="100%" viewBox="0 0 800 800" version="1.1" xmlns="http://www.w3.org/2000/svg" xmlns:xlink="http://www.w3.org/1999/xlink" xml:space="preserve" xmlns:serif="http://www.serif.com/" style="fill-rule:evenodd;clip-rule:evenodd;stroke-linecap:round;stroke-miterlimit:1;">
    <g transform="matrix(1,0,0,1,-235,-1950)">
        <g transform="matrix(2.02015,0,0,2.02017,-51.8034,1393.69)">
            <rect x="142.327" y="275.741" width="396.011" height="396.011" style="fill:none;"/>
            <g transform="matrix(0.495014,0,0,0.495007,25.3959,-130.107)">
                <path d="M635.719,1099.39L635.719,1460.39" style="fill:none;stroke:black;stroke-width:22.22px;"/>
            </g>
            <g transform="matrix(0.495014,0,0,0.495007,78.6099,-130.107)">
                <path d="M642.719,1099.39L625.719,1460.39" style="fill:none;stroke:black;stroke-width:22.22px;"/>
            </g>
            <g transform="matrix(0.495014,0,0,0.495007,-27.8181,-130.107)">
                <path d="M628.719,1099.39L645.719,1460.39" style="fill:none;stroke:black;stroke-width:22.22px;"/>
            </g>
            <g transform="matrix(0.495014,0,0,0.495007,25.6434,-689.886)">
                <rect x="360.468" y="2086.24" width="550.501" height="51" style="fill:none;stroke:black;stroke-width:22.22px;stroke-linejoin:round;"/>
            </g>
            <g>
                <g transform="matrix(0.495014,0,0,0.495007,25.6434,-689.886)">
                    <path d="M568.3,2086.24L586.3,2035.24L649.3,2035.24" style="fill:none;stroke:black;stroke-width:22.22px;stroke-linejoin:round;"/>
                </g>
                <g transform="matrix(-0.495014,0,0,0.495007,654.608,-689.886)">
                    <path d="M568.3,2086.24L586.3,2035.24L649.3,2035.24" style="fill:none;stroke:black;stroke-width:22.22px;stroke-linejoin:round;"/>
                </g>
            </g>
            <g transform="matrix(0.495014,0,0,0.495007,21.6662,-689.886)">
                <path d="M415.587,2168.53L460.967,2666.24L829.3,2666.24L871.92,2168.53" style="fill:none;stroke:black;stroke-width:22.22px;stroke-linejoin:round;"/>
            </g>
        </g>
    </g>
</svg>
